999
dxflib 2.2.0.0
  0
SECTION
  2
HEADER
  9
$ACADVER
  1
AC1015
  9
$HANDSEED
  5
FFFF
  9
$DIMASZ
 40
2.5
  9
$PLIMMIN
 10
0.0
 20
0.0
  9
$DIMEXE
 40
1.25
  9
$DIMGAP
 40
0.625
  9
$PLIMMAX
 10
210.0
 20
297.0
  9
$INSUNITS
 70
4
  9
$DIMEXO
 40
0.625
  9
$DIMTXT
 40
2.5
  9
$CLAYER
  8
0
  0
ENDSEC
  0
SECTION
  2
TABLES
  0
TABLE
  2
VPORT
  5
8
100
AcDbSymbolTable
 70
1
  0
VPORT
  5
30
100
AcDbSymbolTableRecord
100
AcDbViewportTableRecord
  2
*Active
 70
0
 10
0.0
 20
0.0
 11
1.0
 21
1.0
 12
286.3055555555554861
 22
148.5
 13
0.0
 23
0.0
 14
10.0
 24
10.0
 15
10.0
 25
10.0
 16
0.0
 26
0.0
 36
1.0
 17
0.0
 27
0.0
 37
0.0
 40
297.0
 41
1.92798353909465
 42
50.0
 43
0.0
 44
0.0
 50
0.0
 51
0.0
 71
0
 72
100
 73
1
 74
3
 75
1
 76
1
 77
0
 78
0
281
0
 65
1
110
0.0
120
0.0
130
0.0
111
1.0
121
0.0
131
0.0
112
0.0
122
1.0
132
0.0
 79
0
146
0.0
  0
ENDTAB
  0
TABLE
  2
LTYPE
  5
5
100
AcDbSymbolTable
 70
21
  0
LTYPE
  5
14
100
AcDbSymbolTableRecord
100
AcDbLinetypeTableRecord
  2
ByBlock
 70
0
  3

 72
65
 73
0
 40
0.0
  0
LTYPE
  5
15
100
AcDbSymbolTableRecord
100
AcDbLinetypeTableRecord
  2
ByLayer
 70
0
  3

 72
65
 73
0
 40
0.0
  0
LTYPE
  5
16
100
AcDbSymbolTableRecord
100
AcDbLinetypeTableRecord
  2
CONTINUOUS
 70
0
  3
Solid line
 72
65
 73
0
 40
0.0
  0
LTYPE
  5
31
100
AcDbSymbolTableRecord
100
AcDbLinetypeTableRecord
  2
DOT
 70
0
  3
Dot . . . . . . . . . . . . . . . . . . . . . .
 72
65
 73
2
 40
6.3499999999999996
 49
0.0
 74
0
 49
-6.3499999999999996
 74
0
  0
LTYPE
  5
32
100
AcDbSymbolTableRecord
100
AcDbLinetypeTableRecord
  2
DOT2
 70
0
  3
Dot (.5x) .....................................
 72
65
 73
2
 40
3.1749999999999998
 49
0.0
 74
0
 49
-3.1749999999999998
 74
0
  0
LTYPE
  5
33
100
AcDbSymbolTableRecord
100
AcDbLinetypeTableRecord
  2
DOTX2
 70
0
  3
Dot (2x) .  .  .  .  .  .  .  .  .  .  .  .  .
 72
65
 73
2
 40
12.6999999999999993
 49
0.0
 74
0
 49
-12.6999999999999993
 74
0
  0
LTYPE
  5
34
100
AcDbSymbolTableRecord
100
AcDbLinetypeTableRecord
  2
DASHED
 70
0
  3
Dashed __ __ __ __ __ __ __ __ __ __ __ __ __ _
 72
65
 73
2
 40
19.0500000000000007
 49
12.6999999999999993
 74
0
 49
-6.3499999999999996
 74
0
  0
LTYPE
  5
35
100
AcDbSymbolTableRecord
100
AcDbLinetypeTableRecord
  2
DASHED2
 70
0
  3
Dashed (.5x) _ _ _ _ _ _ _ _ _ _ _ _ _ _ _ _ _
 72
65
 73
2
 40
9.5250000000000004
 49
6.3499999999999996
 74
0
 49
-3.1749999999999998
 74
0
  0
LTYPE
  5
36
100
AcDbSymbolTableRecord
100
AcDbLinetypeTableRecord
  2
DASHEDX2
 70
0
  3
Dashed (2x) ____  ____  ____  ____  ____  ___
 72
65
 73
2
 40
38.1000000000000014
 49
25.3999999999999986
 74
0
 49
-12.6999999999999993
 74
0
  0
LTYPE
  5
37
100
AcDbSymbolTableRecord
100
AcDbLinetypeTableRecord
  2
DASHDOT
 70
0
  3
Dash dot __ . __ . __ . __ . __ . __ . __ . __
 72
65
 73
4
 40
25.3999999999999986
 49
12.6999999999999993
 74
0
 49
-6.3499999999999996
 74
0
 49
0.0
 74
0
 49
-6.3499999999999996
 74
0
  0
LTYPE
  5
38
100
AcDbSymbolTableRecord
100
AcDbLinetypeTableRecord
  2
DASHDOT2
 70
0
  3
Dash dot (.5x) _._._._._._._._._._._._._._._.
 72
65
 73
4
 40
12.6999999999999993
 49
6.3499999999999996
 74
0
 49
-3.1749999999999998
 74
0
 49
0.0
 74
0
 49
-3.1749999999999998
 74
0
  0
LTYPE
  5
39
100
AcDbSymbolTableRecord
100
AcDbLinetypeTableRecord
  2
DASHDOTX2
 70
0
  3
Dash dot (2x) ____  .  ____  .  ____  .  ___
 72
65
 73
4
 40
50.7999999999999972
 49
25.3999999999999986
 74
0
 49
-12.6999999999999993
 74
0
 49
0.0
 74
0
 49
-12.6999999999999993
 74
0
  0
LTYPE
  5
3A
100
AcDbSymbolTableRecord
100
AcDbLinetypeTableRecord
  2
DIVIDE
 70
0
  3
Divide ____ . . ____ . . ____ . . ____ . . ____
 72
65
 73
6
 40
31.75
 49
12.6999999999999993
 74
0
 49
-6.3499999999999996
 74
0
 49
0.0
 74
0
 49
-6.3499999999999996
 74
0
 49
0.0
 74
0
 49
-6.3499999999999996
 74
0
  0
LTYPE
  5
3B
100
AcDbSymbolTableRecord
100
AcDbLinetypeTableRecord
  2
DIVIDE2
 70
0
  3
Divide (.5x) __..__..__..__..__..__..__..__.._
 72
65
 73
6
 40
15.875
 49
6.3499999999999996
 74
0
 49
-3.1749999999999998
 74
0
 49
0.0
 74
0
 49
-3.1749999999999998
 74
0
 49
0.0
 74
0
 49
-3.1749999999999998
 74
0
  0
LTYPE
  5
3C
100
AcDbSymbolTableRecord
100
AcDbLinetypeTableRecord
  2
DIVIDEX2
 70
0
  3
Divide (2x) ________  .  .  ________  .  .  _
 72
65
 73
6
 40
63.5
 49
25.3999999999999986
 74
0
 49
-12.6999999999999993
 74
0
 49
0.0
 74
0
 49
-12.6999999999999993
 74
0
 49
0.0
 74
0
 49
-12.6999999999999993
 74
0
  0
LTYPE
  5
3D
100
AcDbSymbolTableRecord
100
AcDbLinetypeTableRecord
  2
CENTER
 70
0
  3
Center ____ _ ____ _ ____ _ ____ _ ____ _ ____
 72
65
 73
4
 40
50.7999999999999972
 49
31.75
 74
0
 49
-6.3499999999999996
 74
0
 49
6.3499999999999996
 74
0
 49
-6.3499999999999996
 74
0
  0
LTYPE
  5
3E
100
AcDbSymbolTableRecord
100
AcDbLinetypeTableRecord
  2
CENTER2
 70
0
  3
Center (.5x) ___ _ ___ _ ___ _ ___ _ ___ _ ___
 72
65
 73
4
 40
28.5749999999999993
 49
19.0500000000000007
 74
0
 49
-3.1749999999999998
 74
0
 49
3.1749999999999998
 74
0
 49
-3.1749999999999998
 74
0
  0
LTYPE
  5
3F
100
AcDbSymbolTableRecord
100
AcDbLinetypeTableRecord
  2
CENTERX2
 70
0
  3
Center (2x) ________  __  ________  __  _____
 72
65
 73
4
 40
101.5999999999999943
 49
63.5
 74
0
 49
-12.6999999999999993
 74
0
 49
12.6999999999999993
 74
0
 49
-12.6999999999999993
 74
0
  0
LTYPE
  5
40
100
AcDbSymbolTableRecord
100
AcDbLinetypeTableRecord
  2
BORDER
 70
0
  3
Border __ __ . __ __ . __ __ . __ __ . __ __ .
 72
65
 73
6
 40
44.4500000000000028
 49
12.6999999999999993
 74
0
 49
-6.3499999999999996
 74
0
 49
12.6999999999999993
 74
0
 49
-6.3499999999999996
 74
0
 49
0.0
 74
0
 49
-6.3499999999999996
 74
0
  0
LTYPE
  5
41
100
AcDbSymbolTableRecord
100
AcDbLinetypeTableRecord
  2
BORDER2
 70
0
  3
Border (.5x) __.__.__.__.__.__.__.__.__.__.__.
 72
65
 73
6
 40
22.2250000000000014
 49
6.3499999999999996
 74
0
 49
-3.1749999999999998
 74
0
 49
6.3499999999999996
 74
0
 49
-3.1749999999999998
 74
0
 49
0.0
 74
0
 49
-3.1749999999999998
 74
0
  0
LTYPE
  5
42
100
AcDbSymbolTableRecord
100
AcDbLinetypeTableRecord
  2
BORDERX2
 70
0
  3
Border (2x) ____  ____  .  ____  ____  .  ___
 72
65
 73
6
 40
88.9000000000000057
 49
25.3999999999999986
 74
0
 49
-12.6999999999999993
 74
0
 49
25.3999999999999986
 74
0
 49
-12.6999999999999993
 74
0
 49
0.0
 74
0
 49
-12.6999999999999993
 74
0
  0
ENDTAB
  0
TABLE
  2
LAYER
  5
2
100
AcDbSymbolTable
 70
2
  0
LAYER
  5
10
100
AcDbSymbolTableRecord
100
AcDbLayerTableRecord
  2
0
 70
0
 62
7
420
0
  6
CONTINUOUS
370
25
390
F
  0
LAYER
  5
43
100
AcDbSymbolTableRecord
100
AcDbLayerTableRecord
  2
leg
 70
0
 62
7
420
0
  6
CONTINUOUS
370
0
390
F
  0
ENDTAB
  0
TABLE
  2
STYLE
  5
3
100
AcDbSymbolTable
 70
1
  0
STYLE
  5
11
100
AcDbSymbolTableRecord
100
AcDbTextStyleTableRecord
  2
Standard
 70
0
 40
0.0
 41
0.75
 50
0.0
 71
0
 42
2.5
  3
txt
  4

  0
ENDTAB
  0
TABLE
  2
VIEW
  5
6
100
AcDbSymbolTable
 70
0
  0
ENDTAB
  0
TABLE
  2
UCS
  5
7
100
AcDbSymbolTable
 70
0
  0
ENDTAB
  0
TABLE
  2
APPID
  5
9
100
AcDbSymbolTable
 70
1
  0
APPID
  5
12
100
AcDbSymbolTableRecord
100
AcDbRegAppTableRecord
  2
ACAD
 70
0
  0
ENDTAB
  0
TABLE
  2
DIMSTYLE
  5
A
100
AcDbSymbolTable
 70
1
100
AcDbDimStyleTable
 71
0
  0
DIMSTYLE
105
27
100
AcDbSymbolTableRecord
100
AcDbDimStyleTableRecord
  2
Standard
 41
2.5
 42
0.625
 43
3.75
 44
1.25
 70
0
 73
0
 74
0
 77
1
 78
8
140
2.5
141
2.5
143
0.03937007874016
147
0.625
171
3
172
1
271
2
272
2
274
3
278
44
283
0
284
8
340
11
  0
ENDTAB
  0
TABLE
  2
BLOCK_RECORD
  5
1
100
AcDbSymbolTable
 70
1
  0
BLOCK_RECORD
  5
1F
100
AcDbSymbolTableRecord
100
AcDbBlockTableRecord
  2
*Model_Space
340
22
  0
BLOCK_RECORD
  5
1B
100
AcDbSymbolTableRecord
100
AcDbBlockTableRecord
  2
*Paper_Space
340
1E
  0
BLOCK_RECORD
  5
23
100
AcDbSymbolTableRecord
100
AcDbBlockTableRecord
  2
*Paper_Space0
340
26
  0
ENDTAB
  0
ENDSEC
  0
SECTION
  2
BLOCKS
  0
BLOCK
  5
20
100
AcDbEntity
  8
0
100
AcDbBlockBegin
  2
*Model_Space
 70
0
 10
0.0
 20
0.0
 30
0.0
  3
*Model_Space
  1

  0
ENDBLK
  5
21
100
AcDbEntity
  8
0
100
AcDbBlockEnd
  0
BLOCK
  5
1C
100
AcDbEntity
 67
1
  8
0
100
AcDbBlockBegin
  2
*Paper_Space
 70
0
 10
0.0
 20
0.0
 30
0.0
  3
*Paper_Space
  1

  0
ENDBLK
  5
1D
100
AcDbEntity
 67
1
  8
0
100
AcDbBlockEnd
  0
BLOCK
  5
24
100
AcDbEntity
  8
0
100
AcDbBlockBegin
  2
*Paper_Space0
 70
0
 10
0.0
 20
0.0
 30
0.0
  3
*Paper_Space0
  1

  0
ENDBLK
  5
25
100
AcDbEntity
  8
0
100
AcDbBlockEnd
  0
ENDSEC
  0
SECTION
  2
ENTITIES
  0
LINE
  5
44
100
AcDbEntity
100
AcDbLine
  8
leg
 62
256
370
-1
  6
ByLayer
 10
49.0362304267777063
 20
96.9691549605643672
 30
0.0
 11
34.0233718661129316
 21
94.1763451515527521
 31
0.0
  0
LINE
  5
45
100
AcDbEntity
100
AcDbLine
  8
leg
 62
256
370
-1
  6
ByLayer
 10
50.555027228805784
 20
80.5091482082192442
 30
0.0
 11
35.2846078966315417
 21
80.5076611308084011
 31
0.0
  0
LINE
  5
46
100
AcDbEntity
100
AcDbLine
  8
leg
 62
256
370
-1
  6
ByLayer
 10
91.0720645292856261
 20
104.4586992564927641
 30
0.0
 11
71.5406892297602326
 21
100.7285495485006663
 31
0.0
  0
LINE
  5
47
100
AcDbEntity
100
AcDbLine
  8
leg
 62
256
370
-1
  6
ByLayer
 10
93.2532898281457392
 20
80.3440417857614193
 30
0.0
 11
73.3695923917647406
 21
80.5090090352292691
 31
0.0
  0
LINE
  5
48
100
AcDbEntity
100
AcDbLine
  8
leg
 62
256
370
-1
  6
ByLayer
 10
21.9099147791098403
 20
68.7045676550734754
 30
0.0
 11
15.4507154580328461
 21
38.6716996219279849
 31
0.0
  0
LINE
  5
49
100
AcDbEntity
100
AcDbLine
  8
leg
 62
256
370
-1
  6
ByLayer
 10
11.7185424795900417
 20
70.0338770854456101
 30
0.0
 11
10.2580366401587071
 21
39.349005554694223
 31
0.0
  0
ARC
  5
4A
100
AcDbEntity
  8
leg
 62
256
370
-1
  6
ByLayer
100
AcDbCircle
 10
16.8689474844359211
 20
69.7887335925854586
 30
0.0
 40
5.156235743838069
100
AcDbArc
 50
347.8622309638037677
 51
177.2749530938514226
  0
ARC
  5
4B
100
AcDbEntity
  8
leg
 62
256
370
-1
  6
ByLayer
100
AcDbCircle
 10
12.8822562433809793
 20
39.2241007444975196
 30
0.0
 40
2.6271904646495492
100
AcDbArc
 50
186.7633883527422824
 51
347.8622309638037109
  0
CIRCLE
  5
4C
100
AcDbEntity
100
AcDbCircle
  8
leg
 62
256
370
-1
  6
ByLayer
 10
18.8542189509068976
 20
85.0091481688630779
 30
0.0
 40
6.0
  0
ARC
  5
4D
100
AcDbEntity
  8
leg
 62
256
370
-1
  6
ByLayer
100
AcDbCircle
 10
35.2839366882070635
 20
87.4001295569264016
 30
0.0
 40
6.8924684588004226
100
AcDbArc
 50
100.5381502959291993
 51
270.0055796279934839
  0
ARC
  5
4E
100
AcDbEntity
  8
leg
 62
256
370
-1
  6
ByLayer
100
AcDbCircle
 10
50.5542189509069431
 20
88.8091481688629756
 30
0.0
 40
8.3000000000000043
100
AcDbArc
 50
270.0055796279940523
 51
100.5381502959294977
  0
ARC
  5
4F
100
AcDbEntity
  8
leg
 62
256
370
-1
  6
ByLayer
100
AcDbCircle
 10
73.4542189509068066
 20
90.7091481688629528
 30
0.0
 40
10.2004901842999676
100
AcDbArc
 50
100.8122856868583739
 51
269.5246502658177405
  0
ARC
  5
50
100
AcDbEntity
  8
leg
 62
256
370
-1
  6
ByLayer
100
AcDbCircle
 10
93.3542189509068976
 20
92.5091481688630779
 30
0.0
 40
12.1655250605964387
100
AcDbArc
 50
269.5246502658182521
 51
100.8122856868582744
  0
LINE
  5
51
100
AcDbEntity
100
AcDbLine
  8
leg
 62
256
370
-1
  6
ByLayer
 10
146.1251421266159696
 20
104.7662000067518875
 30
0.0
 11
125.6987209411556705
 21
109.9681305979377726
 31
0.0
  0
ARC
  5
52
100
AcDbEntity
  8
leg
 62
256
370
-1
  6
ByLayer
100
AcDbCircle
 10
144.3976143443273941
 20
97.9827165534352105
 30
0.0
 40
7.0000000000000018
100
AcDbArc
 50
269.2015324673849932
 51
75.7123768568534814
  0
ARC
  5
53
100
AcDbEntity
  8
leg
 62
256
370
-1
  6
ByLayer
100
AcDbCircle
 10
123.3542189509068976
 20
100.7619744827222803
 30
0.0
 40
9.5052733354519283
100
AcDbArc
 50
76.6175178571065914
 51
100.9580927593936224
  0
ARC
  5
54
100
AcDbEntity
  8
leg
 62
256
370
-1
  6
ByLayer
100
AcDbCircle
 10
117.0774803000175552
 20
99.8534625534473435
 30
0.0
 40
8.8451732766265199
100
AcDbArc
 50
100.9580927593932103
 51
269.2015324673844816
  0
LINE
  5
55
100
AcDbEntity
100
AcDbLine
  8
leg
 62
256
370
-1
  6
ByLayer
 10
144.3000662899490862
 20
90.9833962737875908
 30
0.0
 11
116.9542189509069203
 21
91.0091481688630211
 31
0.0
  0
LINE
  5
56
100
AcDbEntity
100
AcDbLine
  8
leg
 62
256
370
-1
  6
ByLayer
 10
121.5473523860862315
 20
110.0939332480934354
 30
0.0
 11
115.3960927912572743
 21
108.5373572061323557
 31
0.0
  0
LINE
  5
57
100
AcDbEntity
100
AcDbLine
  8
leg
 62
256
370
-1
  6
ByLayer
 10
125.5542189509069431
 20
110.0091481688630779
 30
0.0
 11
125.6987209411556705
 21
109.9681305979377726
 31
0.0
  0
LINE
  5
58
100
AcDbEntity
100
AcDbLine
  8
leg
 62
256
370
-1
  6
ByLayer
 10
156.3542189509068976
 20
83.5091481688630068
 30
0.0
 11
111.3542189509068976
 21
83.5091481688630211
 31
0.0
  0
LINE
  5
59
100
AcDbEntity
100
AcDbLine
  8
leg
 62
256
370
-1
  6
ByLayer
 10
111.3542189509068976
 20
83.5091481688630211
 30
0.0
 11
111.3542189509068976
 21
75.5091481688630353
 31
0.0
  0
CIRCLE
  5
5A
100
AcDbEntity
100
AcDbCircle
  8
leg
 62
256
370
-1
  6
ByLayer
 10
60.1427009251730169
 20
98.1406315225477215
 30
0.0
 40
2.0
  0
CIRCLE
  5
5B
100
AcDbEntity
100
AcDbCircle
  8
leg
 62
256
370
-1
  6
ByLayer
 10
61.5724802070958503
 20
80.4238012899811565
 30
0.0
 40
2.0
  0
CIRCLE
  5
5C
100
AcDbEntity
100
AcDbCircle
  8
leg
 62
256
370
-1
  6
ByLayer
 10
104.2172013984541081
 20
106.2219926812608151
 30
0.0
 40
2.0
  0
CIRCLE
  5
5D
100
AcDbEntity
100
AcDbCircle
  8
leg
 62
256
370
-1
  6
ByLayer
 10
106.3542189509068976
 20
80.5091481688630211
 30
0.0
 40
2.0
  0
LINE
  5
5E
100
AcDbEntity
100
AcDbLine
  8
leg
 62
256
370
-1
  6
ByLayer
 10
10.273348489700993
 20
38.9146979805571931
 30
0.0
 11
10.2580366401587071
 21
39.349005554694223
 31
0.0
  0
CIRCLE
  5
5F
100
AcDbEntity
100
AcDbCircle
  8
leg
 62
256
370
-1
  6
ByLayer
 10
11.2193837566357928
 20
30.0814467081521748
 30
0.0
 40
2.0
  0
ARC
  5
60
100
AcDbEntity
  8
leg
 62
256
370
-1
  6
ByLayer
100
AcDbCircle
 10
8.6457810490930882
 20
9.5564803596997336
 30
0.0
 40
4.9999999999999796
100
AcDbArc
 50
176.8224935420320776
 51
346.7161047107968557
  0
LINE
  5
61
100
AcDbEntity
100
AcDbLine
  8
leg
 62
256
370
-1
  6
ByLayer
 10
3.6534680390856096
 20
9.8336279920366181
 30
0.0
 11
8.2231892200715038
 21
92.1488847077182101
 31
0.0
  0
ARC
  5
62
100
AcDbEntity
  8
leg
 62
256
370
-1
  6
ByLayer
100
AcDbCircle
 10
11.2185770260759909
 20
91.9825961283158335
 30
0.0
 40
3.0
100
AcDbArc
 50
100.3486840879957072
 51
176.8224935420315092
  0
LINE
  5
63
100
AcDbEntity
100
AcDbLine
  8
leg
 62
256
370
-1
  6
ByLayer
 10
111.3542189509068976
 20
75.5091481688630353
 30
0.0
 11
31.7284155906863745
 21
75.5091481688631347
 31
0.0
  0
LINE
  5
64
100
AcDbEntity
100
AcDbLine
  8
leg
 62
256
370
-1
  6
ByLayer
 10
13.5119985329200603
 20
8.4075994258791056
 30
0.0
 11
28.808685100390214
 21
73.1984767291553311
 31
0.0
  0
ARC
  5
65
100
AcDbEntity
  8
leg
 62
256
370
-1
  6
ByLayer
100
AcDbCircle
 10
31.7284155906863816
 20
72.5091481688631632
 30
0.0
 40
3.0
100
AcDbArc
 50
89.9999999999999858
 51
166.7161047107964293
  0
LINE
  5
66
100
AcDbEntity
100
AcDbLine
  8
leg
 62
256
370
-1
  6
ByLayer
 10
156.3542189509068976
 20
105.1495251058903619
 30
0.0
 11
156.3542189509068976
 21
83.5091481688630068
 31
0.0
  0
ARC
  5
67
100
AcDbEntity
  8
leg
 62
256
370
-1
  6
ByLayer
100
AcDbCircle
 10
153.3542189509068976
 20
105.1495251058903477
 30
0.0
 40
3.0
100
AcDbArc
 50
360.0
 51
76.3730051401084751
  0
LINE
  5
68
100
AcDbEntity
100
AcDbLine
  8
leg
 62
256
370
-1
  6
ByLayer
 10
123.973291573330485
 20
115.3590699573663869
 30
0.0
 11
154.0610190277714082
 21
108.0650754229564541
 31
0.0
  0
LINE
  5
69
100
AcDbEntity
100
AcDbLine
  8
leg
 62
256
370
-1
  6
ByLayer
 10
10.6796625603163733
 20
94.9337943931897428
 30
0.0
 11
122.7275770307063567
 21
115.3947179051742609
 31
0.0
  0
ARC
  5
6A
100
AcDbEntity
  8
leg
 62
256
370
-1
  6
ByLayer
100
AcDbCircle
 10
123.2664914964659602
 20
112.4435196403002237
 30
0.0
 40
3.0
100
AcDbArc
 50
76.3730051401084751
 51
100.3486840879957072
  0
LINE
  5
6B
100
AcDbEntity
100
AcDbLine
  8
leg
 62
256
370
-1
  6
ByLayer
 10
139.7179885241291686
 20
21.3399932082985764
 30
0.0
 11
154.7308470847939361
 21
24.132803017310259
 31
0.0
  0
LINE
  5
6C
100
AcDbEntity
100
AcDbLine
  8
leg
 62
256
370
-1
  6
ByLayer
 10
138.1991917221010908
 20
37.7999999606436319
 30
0.0
 11
153.4696110542753331
 21
37.8014870380544536
 31
0.0
  0
LINE
  5
6D
100
AcDbEntity
100
AcDbLine
  8
leg
 62
256
370
-1
  6
ByLayer
 10
97.6821544216212487
 20
13.8504489123702612
 30
0.0
 11
117.2135297211466423
 21
17.5805986203623448
 31
0.0
  0
LINE
  5
6E
100
AcDbEntity
100
AcDbLine
  8
leg
 62
256
370
-1
  6
ByLayer
 10
95.5009291227611357
 20
37.9651063831015492
 30
0.0
 11
115.3846265591421343
 21
37.8001391336335644
 31
0.0
  0
LINE
  5
6F
100
AcDbEntity
100
AcDbLine
  8
leg
 62
256
370
-1
  6
ByLayer
 10
166.8443041717970345
 20
49.6045805137894291
 30
0.0
 11
173.3035034928740288
 21
79.637448546934948
 31
0.0
  0
LINE
  5
70
100
AcDbEntity
100
AcDbLine
  8
leg
 62
256
370
-1
  6
ByLayer
 10
177.0356764713168332
 20
48.2752710834172944
 30
0.0
 11
178.4961823107481678
 21
78.9601426141686744
 31
0.0
  0
ARC
  5
71
100
AcDbEntity
  8
leg
 62
256
370
-1
  6
ByLayer
100
AcDbCircle
 10
171.8852714664709538
 20
48.5204145762776804
 30
0.0
 40
5.156235743838069
100
AcDbArc
 50
167.8622309638037962
 51
357.2749530938514226
  0
ARC
  5
72
100
AcDbEntity
  8
leg
 62
256
370
-1
  6
ByLayer
100
AcDbCircle
 10
175.8719627075258813
 20
79.0850474243654276
 30
0.0
 40
2.6271904646495492
100
AcDbArc
 50
6.7633883527422913
 51
167.8622309638036825
  0
CIRCLE
  5
73
100
AcDbEntity
100
AcDbCircle
  8
leg
 62
256
370
-1
  6
ByLayer
 10
169.8999999999999773
 20
33.2999999999997414
 30
0.0
 40
6.0
  0
ARC
  5
74
100
AcDbEntity
  8
leg
 62
256
370
-1
  6
ByLayer
100
AcDbCircle
 10
153.4702822626998113
 20
30.9090186119368369
 30
0.0
 40
6.8924684588004226
100
AcDbArc
 50
280.5381502959291993
 51
90.0055796279934981
  0
ARC
  5
75
100
AcDbEntity
  8
leg
 62
256
370
-1
  6
ByLayer
100
AcDbCircle
 10
138.1999999999999318
 20
29.5000000000000391
 30
0.0
 40
8.3000000000000043
100
AcDbArc
 50
90.0055796279940523
 51
280.5381502959295403
  0
ARC
  5
76
100
AcDbEntity
  8
leg
 62
256
370
-1
  6
ByLayer
100
AcDbCircle
 10
115.3000000000000682
 20
27.5999999999999623
 30
0.0
 40
10.2004901842999676
100
AcDbArc
 50
280.8122856868583881
 51
89.5246502658177263
  0
ARC
  5
77
100
AcDbEntity
  8
leg
 62
256
370
-1
  6
ByLayer
100
AcDbCircle
 10
95.3999999999999773
 20
25.7999999999999332
 30
0.0
 40
12.1655250605964387
100
AcDbArc
 50
89.5246502658182379
 51
280.8122856868582744
  0
LINE
  5
78
100
AcDbEntity
100
AcDbLine
  8
leg
 62
256
370
-1
  6
ByLayer
 10
42.6290768242909053
 20
13.5429481621111165
 30
0.0
 11
63.0554980097512043
 21
8.3410175709252314
 31
0.0
  0
ARC
  5
79
100
AcDbEntity
  8
leg
 62
256
370
-1
  6
ByLayer
100
AcDbCircle
 10
44.3566046065794808
 20
20.3264316154278006
 30
0.0
 40
7.0000000000000018
100
AcDbArc
 50
89.2015324673850074
 51
255.7123768568534956
  0
ARC
  5
7A
100
AcDbEntity
  8
leg
 62
256
370
-1
  6
ByLayer
100
AcDbCircle
 10
65.3999999999999773
 20
17.5471736861407308
 30
0.0
 40
9.5052733354519283
100
AcDbArc
 50
256.617517857106634
 51
280.9580927593936508
  0
ARC
  5
7B
100
AcDbEntity
  8
leg
 62
256
370
-1
  6
ByLayer
100
AcDbCircle
 10
71.6767386508893196
 20
18.4556856154156677
 30
0.0
 40
8.8451732766265199
100
AcDbArc
 50
280.958092759393196
 51
89.2015324673844958
  0
LINE
  5
7C
100
AcDbEntity
100
AcDbLine
  8
leg
 62
256
370
-1
  6
ByLayer
 10
44.4541526609577886
 20
27.3257518950754097
 30
0.0
 11
71.7999999999999545
 21
27.2999999999999829
 31
0.0
  0
LINE
  5
7D
100
AcDbEntity
100
AcDbLine
  8
leg
 62
256
370
-1
  6
ByLayer
 10
67.2068665648206434
 20
8.2152149207695864
 30
0.0
 11
73.3581261596496006
 21
9.7717909627306589
 31
0.0
  0
LINE
  5
7E
100
AcDbEntity
100
AcDbLine
  8
leg
 62
256
370
-1
  6
ByLayer
 10
63.1999999999999318
 20
8.2999999999999332
 30
0.0
 11
63.0554980097512043
 21
8.3410175709252314
 31
0.0
  0
LINE
  5
7F
100
AcDbEntity
100
AcDbLine
  8
leg
 62
256
370
-1
  6
ByLayer
 10
32.3999999999999773
 20
34.7999999999999972
 30
0.0
 11
77.3999999999999773
 21
34.7999999999999972
 31
0.0
  0
LINE
  5
80
100
AcDbEntity
100
AcDbLine
  8
leg
 62
256
370
-1
  6
ByLayer
 10
77.3999999999999773
 20
34.7999999999999972
 30
0.0
 11
77.3999999999999773
 21
42.7999999999999474
 31
0.0
  0
CIRCLE
  5
81
100
AcDbEntity
100
AcDbCircle
  8
leg
 62
256
370
-1
  6
ByLayer
 10
128.6115180257338579
 20
20.1685166463152328
 30
0.0
 40
2.0
  0
CIRCLE
  5
82
100
AcDbEntity
100
AcDbCircle
  8
leg
 62
256
370
-1
  6
ByLayer
 10
127.1817387438110245
 20
37.8853468788818901
 30
0.0
 40
2.0
  0
CIRCLE
  5
83
100
AcDbEntity
100
AcDbCircle
  8
leg
 62
256
370
-1
  6
ByLayer
 10
84.5370175524527667
 20
12.0871554876021783
 30
0.0
 40
2.0
  0
CIRCLE
  5
84
100
AcDbEntity
100
AcDbCircle
  8
leg
 62
256
370
-1
  6
ByLayer
 10
82.3999999999999773
 20
37.8000000000000753
 30
0.0
 40
2.0
  0
LINE
  5
85
100
AcDbEntity
100
AcDbLine
  8
leg
 62
256
370
-1
  6
ByLayer
 10
178.4808704612058818
 20
79.3944501883057541
 30
0.0
 11
178.4961823107481678
 21
78.9601426141686744
 31
0.0
  0
CIRCLE
  5
86
100
AcDbEntity
100
AcDbCircle
  8
leg
 62
256
370
-1
  6
ByLayer
 10
177.5348351942710678
 20
88.2277014607107759
 30
0.0
 40
2.0
  0
ARC
  5
87
100
AcDbEntity
  8
leg
 62
256
370
-1
  6
ByLayer
100
AcDbCircle
 10
180.1084379018137724
 20
108.7526678091632277
 30
0.0
 40
4.9999999999999796
100
AcDbArc
 50
356.8224935420320776
 51
166.7161047107968557
  0
LINE
  5
88
100
AcDbEntity
100
AcDbLine
  8
leg
 62
256
370
-1
  6
ByLayer
 10
185.1007509118212511
 20
108.475520176826393
 30
0.0
 11
180.5310297308353711
 21
26.1602634611450746
 31
0.0
  0
ARC
  5
89
100
AcDbEntity
  8
leg
 62
256
370
-1
  6
ByLayer
100
AcDbCircle
 10
177.5356419248308839
 20
26.3265520405467655
 30
0.0
 40
3.0
100
AcDbArc
 50
280.3486840879957072
 51
356.8224935420315092
  0
LINE
  5
8A
100
AcDbEntity
100
AcDbLine
  8
leg
 62
256
370
-1
  6
ByLayer
 10
77.3999999999999773
 20
42.7999999999999474
 30
0.0
 11
157.0258033602204932
 21
42.7999999999998977
 31
0.0
  0
LINE
  5
8B
100
AcDbEntity
100
AcDbLine
  8
leg
 62
256
370
-1
  6
ByLayer
 10
175.2422204179868004
 20
109.9015487429838203
 30
0.0
 11
159.9455338505166537
 21
45.1106714397077724
 31
0.0
  0
ARC
  5
8C
100
AcDbEntity
  8
leg
 62
256
370
-1
  6
ByLayer
100
AcDbCircle
 10
157.0258033602204932
 20
45.7999999999996987
 30
0.0
 40
3.0
100
AcDbArc
 50
270.0
 51
346.7161047107964578
  0
LINE
  5
8D
100
AcDbEntity
100
AcDbLine
  8
leg
 62
256
370
-1
  6
ByLayer
 10
32.3999999999999773
 20
13.1596230629726421
 30
0.0
 11
32.3999999999999773
 21
34.7999999999999972
 31
0.0
  0
ARC
  5
8E
100
AcDbEntity
  8
leg
 62
256
370
-1
  6
ByLayer
100
AcDbCircle
 10
35.3999999999999773
 20
13.1596230629726563
 30
0.0
 40
3.0
100
AcDbArc
 50
180.0
 51
256.3730051401084893
  0
LINE
  5
8F
100
AcDbEntity
100
AcDbLine
  8
leg
 62
256
370
-1
  6
ByLayer
 10
64.7809273775764041
 20
2.9500782114966206
 30
0.0
 11
34.6931999231354666
 21
10.2440727459065499
 31
0.0
  0
LINE
  5
90
100
AcDbEntity
100
AcDbLine
  8
leg
 62
256
370
-1
  6
ByLayer
 10
178.0745563905904874
 20
23.3753537756732968
 30
0.0
 11
66.0266419202005181
 21
2.9144302636887609
 31
0.0
  0
ARC
  5
91
100
AcDbEntity
  8
leg
 62
256
370
-1
  6
ByLayer
100
AcDbCircle
 10
65.4877274544409147
 20
5.8656285285627874
 30
0.0
 40
3.0
100
AcDbArc
 50
256.3730051401084893
 51
280.3486840879957072
  0
ENDSEC
  0
SECTION
  2
OBJECTS
  0
DICTIONARY
  5
C
100
AcDbDictionary
280
0
281
1
  3
ACAD_GROUP
350
D
  3
ACAD_LAYOUT
350
1A
  3
ACAD_MLINESTYLE
350
17
  3
ACAD_PLOTSETTINGS
350
19
  3
ACAD_PLOTSTYLENAME
350
E
  3
AcDbVariableDictionary
350
92
  0
DICTIONARY
  5
D
100
AcDbDictionary
280
0
281
1
  0
ACDBDICTIONARYWDFLT
  5
E
100
AcDbDictionary
281
1
  3
Normal
350
F
100
AcDbDictionaryWithDefault
340
F
  0
ACDBPLACEHOLDER
  5
F
  0
DICTIONARY
  5
17
100
AcDbDictionary
280
0
281
1
  3
Standard
350
18
  0
MLINESTYLE
  5
18
100
AcDbMlineStyle
  2
STANDARD
 70
0
  3

 62
256
 51
90.0
 52
90.0
 71
2
 49
0.5
 62
256
  6
BYLAYER
 49
-0.5
 62
256
  6
BYLAYER
  0
DICTIONARY
  5
19
100
AcDbDictionary
280
0
281
1
  0
DICTIONARY
  5
1A
100
AcDbDictionary
281
1
  3
Layout1
350
1E
  3
Layout2
350
26
  3
Model
350
22
  0
LAYOUT
  5
1E
100
AcDbPlotSettings
  1

  2
C:\Program Files\AutoCAD 2002\plotters\DWF ePlot (optimized for plotting).pc3
  4

  6

 40
0.0
 41
0.0
 42
0.0
 43
0.0
 44
0.0
 45
0.0
 46
0.0
 47
0.0
 48
0.0
 49
0.0
140
0.0
141
0.0
142
1.0
143
1.0
 70
688
 72
0
 73
0
 74
5
  7

 75
16
147
1.0
148
0.0
149
0.0
100
AcDbLayout
  1
Layout1
 70
1
 71
1
 10
0.0
 20
0.0
 11
420.0
 21
297.0
 12
0.0
 22
0.0
 32
0.0
 14
100000000000000000000.0
 24
100000000000000000000.0
 34
100000000000000000000.0
 15
-100000000000000000000.0
 25
-100000000000000000000.0
 35
-100000000000000000000.0
146
0.0
 13
0.0
 23
0.0
 33
0.0
 16
1.0
 26
0.0
 36
0.0
 17
0.0
 27
1.0
 37
0.0
 76
0
330
1B
  0
LAYOUT
  5
22
100
AcDbPlotSettings
  1

  2
C:\Program Files\AutoCAD 2002\plotters\DWF ePlot (optimized for plotting).pc3
  4

  6

 40
0.0
 41
0.0
 42
0.0
 43
0.0
 44
0.0
 45
0.0
 46
0.0
 47
0.0
 48
0.0
 49
0.0
140
0.0
141
0.0
142
1.0
143
1.0
 70
1712
 72
0
 73
0
 74
0
  7

 75
0
147
1.0
148
0.0
149
0.0
100
AcDbLayout
  1
Model
 70
1
 71
0
 10
0.0
 20
0.0
 11
12.0
 21
9.0
 12
0.0
 22
0.0
 32
0.0
 14
0.0
 24
0.0
 34
0.0
 15
0.0
 25
0.0
 35
0.0
146
0.0
 13
0.0
 23
0.0
 33
0.0
 16
1.0
 26
0.0
 36
0.0
 17
0.0
 27
1.0
 37
0.0
 76
0
330
1F
  0
LAYOUT
  5
26
100
AcDbPlotSettings
  1

  2
C:\Program Files\AutoCAD 2002\plotters\DWF ePlot (optimized for plotting).pc3
  4

  6

 40
0.0
 41
0.0
 42
0.0
 43
0.0
 44
0.0
 45
0.0
 46
0.0
 47
0.0
 48
0.0
 49
0.0
140
0.0
141
0.0
142
1.0
143
1.0
 70
688
 72
0
 73
0
 74
5
  7

 75
16
147
1.0
148
0.0
149
0.0
100
AcDbLayout
  1
Layout2
 70
1
 71
2
 10
0.0
 20
0.0
 11
12.0
 21
9.0
 12
0.0
 22
0.0
 32
0.0
 14
0.0
 24
0.0
 34
0.0
 15
0.0
 25
0.0
 35
0.0
146
0.0
 13
0.0
 23
0.0
 33
0.0
 16
1.0
 26
0.0
 36
0.0
 17
0.0
 27
1.0
 37
0.0
 76
0
330
23
  0
DICTIONARY
  5
92
100
AcDbDictionary
281
1
  3
DIMASSOC
350
94
  3
HIDETEXT
350
93
  0
DICTIONARYVAR
  5
93
100
DictionaryVariables
280
0
  1
2
  0
DICTIONARYVAR
  5
94
100
DictionaryVariables
280
0
  1
1
  0
ENDSEC
  0
EOF
