999
dxflib 2.2.0.0
  0
SECTION
  2
HEADER
  9
$ACADVER
  1
AC1015
  9
$HANDSEED
  5
FFFF
  9
$DIMASZ
 40
2.5
  9
$PLIMMIN
 10
0.0
 20
0.0
  9
$DIMEXE
 40
1.25
  9
$DIMGAP
 40
0.625
  9
$PLIMMAX
 10
210.0
 20
297.0
  9
$INSUNITS
 70
4
  9
$DIMEXO
 40
0.625
  9
$DIMTXT
 40
2.5
  9
$CLAYER
  8
0
  0
ENDSEC
  0
SECTION
  2
TABLES
  0
TABLE
  2
VPORT
  5
8
100
AcDbSymbolTable
 70
1
  0
VPORT
  5
30
100
AcDbSymbolTableRecord
100
AcDbViewportTableRecord
  2
*Active
 70
0
 10
0.0
 20
0.0
 11
1.0
 21
1.0
 12
286.3055555555554861
 22
148.5
 13
0.0
 23
0.0
 14
10.0
 24
10.0
 15
10.0
 25
10.0
 16
0.0
 26
0.0
 36
1.0
 17
0.0
 27
0.0
 37
0.0
 40
297.0
 41
1.92798353909465
 42
50.0
 43
0.0
 44
0.0
 50
0.0
 51
0.0
 71
0
 72
100
 73
1
 74
3
 75
1
 76
1
 77
0
 78
0
281
0
 65
1
110
0.0
120
0.0
130
0.0
111
1.0
121
0.0
131
0.0
112
0.0
122
1.0
132
0.0
 79
0
146
0.0
  0
ENDTAB
  0
TABLE
  2
LTYPE
  5
5
100
AcDbSymbolTable
 70
21
  0
LTYPE
  5
14
100
AcDbSymbolTableRecord
100
AcDbLinetypeTableRecord
  2
ByBlock
 70
0
  3

 72
65
 73
0
 40
0.0
  0
LTYPE
  5
15
100
AcDbSymbolTableRecord
100
AcDbLinetypeTableRecord
  2
ByLayer
 70
0
  3

 72
65
 73
0
 40
0.0
  0
LTYPE
  5
16
100
AcDbSymbolTableRecord
100
AcDbLinetypeTableRecord
  2
CONTINUOUS
 70
0
  3
Solid line
 72
65
 73
0
 40
0.0
  0
LTYPE
  5
31
100
AcDbSymbolTableRecord
100
AcDbLinetypeTableRecord
  2
DOT
 70
0
  3
Dot . . . . . . . . . . . . . . . . . . . . . .
 72
65
 73
2
 40
6.3499999999999996
 49
0.0
 74
0
 49
-6.3499999999999996
 74
0
  0
LTYPE
  5
32
100
AcDbSymbolTableRecord
100
AcDbLinetypeTableRecord
  2
DOT2
 70
0
  3
Dot (.5x) .....................................
 72
65
 73
2
 40
3.1749999999999998
 49
0.0
 74
0
 49
-3.1749999999999998
 74
0
  0
LTYPE
  5
33
100
AcDbSymbolTableRecord
100
AcDbLinetypeTableRecord
  2
DOTX2
 70
0
  3
Dot (2x) .  .  .  .  .  .  .  .  .  .  .  .  .
 72
65
 73
2
 40
12.6999999999999993
 49
0.0
 74
0
 49
-12.6999999999999993
 74
0
  0
LTYPE
  5
34
100
AcDbSymbolTableRecord
100
AcDbLinetypeTableRecord
  2
DASHED
 70
0
  3
Dashed __ __ __ __ __ __ __ __ __ __ __ __ __ _
 72
65
 73
2
 40
19.0500000000000007
 49
12.6999999999999993
 74
0
 49
-6.3499999999999996
 74
0
  0
LTYPE
  5
35
100
AcDbSymbolTableRecord
100
AcDbLinetypeTableRecord
  2
DASHED2
 70
0
  3
Dashed (.5x) _ _ _ _ _ _ _ _ _ _ _ _ _ _ _ _ _
 72
65
 73
2
 40
9.5250000000000004
 49
6.3499999999999996
 74
0
 49
-3.1749999999999998
 74
0
  0
LTYPE
  5
36
100
AcDbSymbolTableRecord
100
AcDbLinetypeTableRecord
  2
DASHEDX2
 70
0
  3
Dashed (2x) ____  ____  ____  ____  ____  ___
 72
65
 73
2
 40
38.1000000000000014
 49
25.3999999999999986
 74
0
 49
-12.6999999999999993
 74
0
  0
LTYPE
  5
37
100
AcDbSymbolTableRecord
100
AcDbLinetypeTableRecord
  2
DASHDOT
 70
0
  3
Dash dot __ . __ . __ . __ . __ . __ . __ . __
 72
65
 73
4
 40
25.3999999999999986
 49
12.6999999999999993
 74
0
 49
-6.3499999999999996
 74
0
 49
0.0
 74
0
 49
-6.3499999999999996
 74
0
  0
LTYPE
  5
38
100
AcDbSymbolTableRecord
100
AcDbLinetypeTableRecord
  2
DASHDOT2
 70
0
  3
Dash dot (.5x) _._._._._._._._._._._._._._._.
 72
65
 73
4
 40
12.6999999999999993
 49
6.3499999999999996
 74
0
 49
-3.1749999999999998
 74
0
 49
0.0
 74
0
 49
-3.1749999999999998
 74
0
  0
LTYPE
  5
39
100
AcDbSymbolTableRecord
100
AcDbLinetypeTableRecord
  2
DASHDOTX2
 70
0
  3
Dash dot (2x) ____  .  ____  .  ____  .  ___
 72
65
 73
4
 40
50.7999999999999972
 49
25.3999999999999986
 74
0
 49
-12.6999999999999993
 74
0
 49
0.0
 74
0
 49
-12.6999999999999993
 74
0
  0
LTYPE
  5
3A
100
AcDbSymbolTableRecord
100
AcDbLinetypeTableRecord
  2
DIVIDE
 70
0
  3
Divide ____ . . ____ . . ____ . . ____ . . ____
 72
65
 73
6
 40
31.75
 49
12.6999999999999993
 74
0
 49
-6.3499999999999996
 74
0
 49
0.0
 74
0
 49
-6.3499999999999996
 74
0
 49
0.0
 74
0
 49
-6.3499999999999996
 74
0
  0
LTYPE
  5
3B
100
AcDbSymbolTableRecord
100
AcDbLinetypeTableRecord
  2
DIVIDE2
 70
0
  3
Divide (.5x) __..__..__..__..__..__..__..__.._
 72
65
 73
6
 40
15.875
 49
6.3499999999999996
 74
0
 49
-3.1749999999999998
 74
0
 49
0.0
 74
0
 49
-3.1749999999999998
 74
0
 49
0.0
 74
0
 49
-3.1749999999999998
 74
0
  0
LTYPE
  5
3C
100
AcDbSymbolTableRecord
100
AcDbLinetypeTableRecord
  2
DIVIDEX2
 70
0
  3
Divide (2x) ________  .  .  ________  .  .  _
 72
65
 73
6
 40
63.5
 49
25.3999999999999986
 74
0
 49
-12.6999999999999993
 74
0
 49
0.0
 74
0
 49
-12.6999999999999993
 74
0
 49
0.0
 74
0
 49
-12.6999999999999993
 74
0
  0
LTYPE
  5
3D
100
AcDbSymbolTableRecord
100
AcDbLinetypeTableRecord
  2
CENTER
 70
0
  3
Center ____ _ ____ _ ____ _ ____ _ ____ _ ____
 72
65
 73
4
 40
50.7999999999999972
 49
31.75
 74
0
 49
-6.3499999999999996
 74
0
 49
6.3499999999999996
 74
0
 49
-6.3499999999999996
 74
0
  0
LTYPE
  5
3E
100
AcDbSymbolTableRecord
100
AcDbLinetypeTableRecord
  2
CENTER2
 70
0
  3
Center (.5x) ___ _ ___ _ ___ _ ___ _ ___ _ ___
 72
65
 73
4
 40
28.5749999999999993
 49
19.0500000000000007
 74
0
 49
-3.1749999999999998
 74
0
 49
3.1749999999999998
 74
0
 49
-3.1749999999999998
 74
0
  0
LTYPE
  5
3F
100
AcDbSymbolTableRecord
100
AcDbLinetypeTableRecord
  2
CENTERX2
 70
0
  3
Center (2x) ________  __  ________  __  _____
 72
65
 73
4
 40
101.5999999999999943
 49
63.5
 74
0
 49
-12.6999999999999993
 74
0
 49
12.6999999999999993
 74
0
 49
-12.6999999999999993
 74
0
  0
LTYPE
  5
40
100
AcDbSymbolTableRecord
100
AcDbLinetypeTableRecord
  2
BORDER
 70
0
  3
Border __ __ . __ __ . __ __ . __ __ . __ __ .
 72
65
 73
6
 40
44.4500000000000028
 49
12.6999999999999993
 74
0
 49
-6.3499999999999996
 74
0
 49
12.6999999999999993
 74
0
 49
-6.3499999999999996
 74
0
 49
0.0
 74
0
 49
-6.3499999999999996
 74
0
  0
LTYPE
  5
41
100
AcDbSymbolTableRecord
100
AcDbLinetypeTableRecord
  2
BORDER2
 70
0
  3
Border (.5x) __.__.__.__.__.__.__.__.__.__.__.
 72
65
 73
6
 40
22.2250000000000014
 49
6.3499999999999996
 74
0
 49
-3.1749999999999998
 74
0
 49
6.3499999999999996
 74
0
 49
-3.1749999999999998
 74
0
 49
0.0
 74
0
 49
-3.1749999999999998
 74
0
  0
LTYPE
  5
42
100
AcDbSymbolTableRecord
100
AcDbLinetypeTableRecord
  2
BORDERX2
 70
0
  3
Border (2x) ____  ____  .  ____  ____  .  ___
 72
65
 73
6
 40
88.9000000000000057
 49
25.3999999999999986
 74
0
 49
-12.6999999999999993
 74
0
 49
25.3999999999999986
 74
0
 49
-12.6999999999999993
 74
0
 49
0.0
 74
0
 49
-12.6999999999999993
 74
0
  0
ENDTAB
  0
TABLE
  2
LAYER
  5
2
100
AcDbSymbolTable
 70
2
  0
LAYER
  5
10
100
AcDbSymbolTableRecord
100
AcDbLayerTableRecord
  2
0
 70
0
 62
7
420
0
  6
CONTINUOUS
370
25
390
F
  0
LAYER
  5
43
100
AcDbSymbolTableRecord
100
AcDbLayerTableRecord
  2
help2
 70
0
 62
2
420
16776960
  6
CONTINUOUS
370
0
390
F
  0
ENDTAB
  0
TABLE
  2
STYLE
  5
3
100
AcDbSymbolTable
 70
1
  0
STYLE
  5
11
100
AcDbSymbolTableRecord
100
AcDbTextStyleTableRecord
  2
Standard
 70
0
 40
0.0
 41
0.75
 50
0.0
 71
0
 42
2.5
  3
txt
  4

  0
ENDTAB
  0
TABLE
  2
VIEW
  5
6
100
AcDbSymbolTable
 70
0
  0
ENDTAB
  0
TABLE
  2
UCS
  5
7
100
AcDbSymbolTable
 70
0
  0
ENDTAB
  0
TABLE
  2
APPID
  5
9
100
AcDbSymbolTable
 70
1
  0
APPID
  5
12
100
AcDbSymbolTableRecord
100
AcDbRegAppTableRecord
  2
ACAD
 70
0
  0
ENDTAB
  0
TABLE
  2
DIMSTYLE
  5
A
100
AcDbSymbolTable
 70
1
100
AcDbDimStyleTable
 71
0
  0
DIMSTYLE
105
27
100
AcDbSymbolTableRecord
100
AcDbDimStyleTableRecord
  2
Standard
 41
2.5
 42
0.625
 43
3.75
 44
1.25
 70
0
 73
0
 74
0
 77
1
 78
8
140
2.5
141
2.5
143
0.03937007874016
147
0.625
171
3
172
1
271
2
272
2
274
3
278
44
283
0
284
8
340
11
  0
ENDTAB
  0
TABLE
  2
BLOCK_RECORD
  5
1
100
AcDbSymbolTable
 70
1
  0
BLOCK_RECORD
  5
1F
100
AcDbSymbolTableRecord
100
AcDbBlockTableRecord
  2
*Model_Space
340
22
  0
BLOCK_RECORD
  5
1B
100
AcDbSymbolTableRecord
100
AcDbBlockTableRecord
  2
*Paper_Space
340
1E
  0
BLOCK_RECORD
  5
23
100
AcDbSymbolTableRecord
100
AcDbBlockTableRecord
  2
*Paper_Space0
340
26
  0
ENDTAB
  0
ENDSEC
  0
SECTION
  2
BLOCKS
  0
BLOCK
  5
20
100
AcDbEntity
  8
0
100
AcDbBlockBegin
  2
*Model_Space
 70
0
 10
0.0
 20
0.0
 30
0.0
  3
*Model_Space
  1

  0
ENDBLK
  5
21
100
AcDbEntity
  8
0
100
AcDbBlockEnd
  0
BLOCK
  5
1C
100
AcDbEntity
 67
1
  8
0
100
AcDbBlockBegin
  2
*Paper_Space
 70
0
 10
0.0
 20
0.0
 30
0.0
  3
*Paper_Space
  1

  0
ENDBLK
  5
1D
100
AcDbEntity
 67
1
  8
0
100
AcDbBlockEnd
  0
BLOCK
  5
24
100
AcDbEntity
  8
0
100
AcDbBlockBegin
  2
*Paper_Space0
 70
0
 10
0.0
 20
0.0
 30
0.0
  3
*Paper_Space0
  1

  0
ENDBLK
  5
25
100
AcDbEntity
  8
0
100
AcDbBlockEnd
  0
ENDSEC
  0
SECTION
  2
ENTITIES
  0
LINE
  5
44
100
AcDbEntity
100
AcDbLine
  8
help2
 62
256
370
-1
  6
ByLayer
 10
2.5
 20
33.5353399475093994
 30
0.0
 11
30.5
 21
33.5353399475093923
 31
0.0
  0
CIRCLE
  5
45
100
AcDbEntity
100
AcDbCircle
  8
help2
 62
256
370
-1
  6
ByLayer
 10
213.6975843928103131
 20
68.780783014338482
 30
0.0
 40
10.0
  0
LINE
  5
46
100
AcDbEntity
100
AcDbLine
  8
help2
 62
256
370
-1
  6
ByLayer
 10
106.6452424266747698
 20
78.1962445261485755
 30
0.0
 11
130.8767646156282467
 21
81.1246981851440694
 31
0.0
  0
LINE
  5
47
100
AcDbEntity
100
AcDbLine
  8
help2
 62
256
370
-1
  6
ByLayer
 10
107.7259023112404179
 20
61.0585069628379316
 30
0.0
 11
132.1333458767510933
 21
61.1970963673409898
 31
0.0
  0
ARC
  5
48
100
AcDbEntity
  8
help2
 62
256
370
-1
  6
ByLayer
100
AcDbCircle
 10
107.677070910190082
 20
69.6583683276665084
 30
0.0
 40
8.5999999999999943
100
AcDbArc
 50
96.890951569143013
 51
270.3253311886076631
  0
ARC
  5
49
100
AcDbEntity
  8
help2
 62
256
370
-1
  6
ByLayer
100
AcDbCircle
 10
132.0765651778553433
 20
71.1969351636533077
 30
0.0
 40
9.9999999999999911
100
AcDbArc
 50
270.3253311886077199
 51
96.8909515691429704
  0
LINE
  5
4A
100
AcDbEntity
100
AcDbLine
  8
help2
 62
256
370
-1
  6
ByLayer
 10
237.5
 20
10.0353399475093568
 30
0.0
 11
202.5
 21
5.0353399475093639
 31
0.0
  0
CIRCLE
  5
4B
100
AcDbEntity
100
AcDbCircle
  8
help2
 62
256
370
-1
  6
ByLayer
 10
217.5
 20
45.0353399475092715
 30
0.0
 40
9.0
  0
CIRCLE
  5
4C
100
AcDbEntity
100
AcDbCircle
  8
help2
 62
256
370
-1
  6
ByLayer
 10
217.5
 20
22.0353399475093212
 30
0.0
 40
9.0
  0
LINE
  5
4D
100
AcDbEntity
100
AcDbLine
  8
help2
 62
256
370
-1
  6
ByLayer
 10
67.2837351141043314
 20
73.0362103169525909
 30
0.0
 11
85.7063466816800883
 21
75.5673972677324173
 31
0.0
  0
LINE
  5
4E
100
AcDbEntity
100
AcDbLine
  8
help2
 62
256
370
-1
  6
ByLayer
 10
68.0821394458593545
 20
61.0920815138935396
 30
0.0
 11
86.6777386186486183
 21
61.0353738906773202
 31
0.0
  0
ARC
  5
4F
100
AcDbEntity
  8
help2
 62
256
370
-1
  6
ByLayer
100
AcDbCircle
 10
68.1004364716275745
 20
67.0920536153993936
 30
0.0
 40
5.9999999999999956
100
AcDbArc
 50
97.8232093452610059
 51
269.8252760034988
  0
ARC
  5
50
100
AcDbEntity
  8
help2
 62
256
370
-1
  6
ByLayer
100
AcDbCircle
 10
86.6999999999999886
 20
68.3353399475093823
 30
0.0
 40
7.2999999999999954
100
AcDbArc
 50
269.8252760034985158
 51
97.8232093452606648
  0
LINE
  5
51
100
AcDbEntity
100
AcDbLine
  8
help2
 62
256
370
-1
  6
ByLayer
 10
67.5
 20
35.0353399475093994
 30
0.0
 11
30.5
 21
22.0353399475093781
 31
0.0
  0
LINE
  5
52
100
AcDbEntity
100
AcDbLine
  8
help2
 62
256
370
-1
  6
ByLayer
 10
37.9912586969224435
 20
66.5820740284803776
 30
0.0
 11
23.5601735346795067
 21
48.1139382362049517
 31
0.0
  0
LINE
  5
53
100
AcDbEntity
100
AcDbLine
  8
help2
 62
256
370
-1
  6
ByLayer
 10
30.1957389061395247
 20
40.8242840526148854
 30
0.0
 11
49.9352763655505214
 21
53.4606964980179669
 31
0.0
  0
ARC
  5
54
100
AcDbEntity
  8
help2
 62
256
370
-1
  6
ByLayer
100
AcDbCircle
 10
45.0829463344993542
 20
61.040597108828166
 30
0.0
 40
9.0000000000000071
100
AcDbArc
 50
302.6256434487045794
 51
141.9957694703037987
  0
ARC
  5
55
100
AcDbEntity
  8
help2
 62
256
370
-1
  6
ByLayer
100
AcDbCircle
 10
27.5
 20
45.0353399475093426
 30
0.0
 40
4.9999999999999911
100
AcDbArc
 50
141.9957694703037987
 51
302.6256434487044658
  0
LINE
  5
56
100
AcDbEntity
100
AcDbLine
  8
help2
 62
256
370
-1
  6
ByLayer
 10
40.2999401013819352
 20
38.1760607548206963
 30
0.0
 11
53.6236658776476816
 21
47.2362084729994294
 31
0.0
  0
LINE
  5
57
100
AcDbEntity
100
AcDbLine
  8
help2
 62
256
370
-1
  6
ByLayer
 10
43.0160840460372214
 20
32.8773537152472812
 30
0.0
 11
58.1505724520731633
 21
38.4050300737104777
 31
0.0
  0
ARC
  5
58
100
AcDbEntity
  8
help2
 62
256
370
-1
  6
ByLayer
100
AcDbCircle
 10
56.435218995865057
 20
43.1015780102564889
 30
0.0
 40
4.9999999999999929
100
AcDbArc
 50
290.0640679986736359
 51
124.215743859967958
  0
ARC
  5
59
100
AcDbEntity
  8
help2
 62
256
370
-1
  6
ByLayer
100
AcDbCircle
 10
41.9868719723123718
 20
35.6952824771748496
 30
0.0
 40
2.9999999999999925
100
AcDbArc
 50
124.2157438599680859
 51
290.0640679986742043
  0
CIRCLE
  5
5A
100
AcDbEntity
100
AcDbCircle
  8
help2
 62
256
370
-1
  6
ByLayer
 10
60.5
 20
55.0353399475094278
 30
0.0
 40
2.0
  0
CIRCLE
  5
5B
100
AcDbEntity
100
AcDbCircle
  8
help2
 62
256
370
-1
  6
ByLayer
 10
202.5
 20
82.035339947509371
 30
0.0
 40
2.0
  0
CIRCLE
  5
5C
100
AcDbEntity
100
AcDbCircle
  8
help2
 62
256
370
-1
  6
ByLayer
 10
95.8907164819159448
 20
77.018623413725777
 30
0.0
 40
2.0
  0
CIRCLE
  5
5D
100
AcDbEntity
100
AcDbCircle
  8
help2
 62
256
370
-1
  6
ByLayer
 10
96.935077000889919
 20
61.0050954561388181
 30
0.0
 40
2.0
  0
CIRCLE
  5
5E
100
AcDbEntity
100
AcDbCircle
  8
help2
 62
256
370
-1
  6
ByLayer
 10
56.4109360596978604
 20
70.9055399295280893
 30
0.0
 40
2.0
  0
CIRCLE
  5
5F
100
AcDbEntity
100
AcDbCircle
  8
help2
 62
256
370
-1
  6
ByLayer
 10
208.5374604560087164
 20
33.5705255619430147
 30
0.0
 40
2.0
  0
CIRCLE
  5
60
100
AcDbEntity
100
AcDbCircle
  8
help2
 62
256
370
-1
  6
ByLayer
 10
226.4886210226673029
 20
33.665229013021488
 30
0.0
 40
2.0
  0
CIRCLE
  5
61
100
AcDbEntity
100
AcDbCircle
  8
help2
 62
256
370
-1
  6
ByLayer
 10
206.9651403387413211
 20
55.2673290334463161
 30
0.0
 40
2.0
  0
CIRCLE
  5
62
100
AcDbEntity
100
AcDbCircle
  8
help2
 62
256
370
-1
  6
ByLayer
 10
225.323040086314677
 20
58.181281374330851
 30
0.0
 40
2.0
  0
CIRCLE
  5
63
100
AcDbEntity
100
AcDbCircle
  8
help2
 62
256
370
-1
  6
ByLayer
 10
187.2473961654224013
 20
89.1663079324042087
 30
0.0
 40
2.0
  0
CIRCLE
  5
64
100
AcDbEntity
100
AcDbCircle
  8
help2
 62
256
370
-1
  6
ByLayer
 10
208.383263811307188
 20
10.431315681700319
 30
0.0
 40
2.0
  0
LINE
  5
65
100
AcDbEntity
100
AcDbLine
  8
help2
 62
256
370
-1
  6
ByLayer
 10
36.7524879308343628
 20
74.1490042083558336
 30
0.0
 11
2.5
 21
33.5353399475093994
 31
0.0
  0
ARC
  5
66
100
AcDbEntity
  8
help2
 62
256
370
-1
  6
ByLayer
100
AcDbCircle
 10
39.0457878896257284
 20
72.2148958093751503
 30
0.0
 40
3.0
100
AcDbArc
 50
97.5946433685914769
 51
139.8566039339430063
  0
LINE
  5
67
100
AcDbEntity
100
AcDbLine
  8
help2
 62
256
370
-1
  6
ByLayer
 10
186.7725285527185974
 20
94.9383437545385362
 30
0.0
 11
38.6492967293526704
 21
75.1885795114230859
 31
0.0
  0
ARC
  5
68
100
AcDbEntity
  8
help2
 62
256
370
-1
  6
ByLayer
100
AcDbCircle
 10
187.1690197129916555
 20
91.9646600524906432
 30
0.0
 40
3.0
100
AcDbArc
 50
70.1013451974837523
 51
97.5946433685915196
  0
LINE
  5
69
100
AcDbEntity
100
AcDbLine
  8
help2
 62
256
370
-1
  6
ByLayer
 10
224.0598025476951989
 20
81.8018470075154056
 30
0.0
 11
188.190092134742315
 21
94.7855484071654644
 31
0.0
  0
ARC
  5
6A
100
AcDbEntity
  8
help2
 62
256
370
-1
  6
ByLayer
100
AcDbCircle
 10
223.0387301259445394
 20
78.9809586528405561
 30
0.0
 40
3.0
100
AcDbArc
 50
24.9722013190312992
 51
70.1013451974838375
  0
LINE
  5
6B
100
AcDbEntity
100
AcDbLine
  8
help2
 62
256
370
-1
  6
ByLayer
 10
237.2195381769673759
 20
55.6375549278730617
 30
0.0
 11
225.7582683029119153
 21
80.2474941257021754
 31
0.0
  0
LINE
  5
6C
100
AcDbEntity
100
AcDbLine
  8
help2
 62
256
370
-1
  6
ByLayer
 10
237.5
 20
10.0353399475093568
 30
0.0
 11
237.5
 21
54.3710194550110018
 31
0.0
  0
ARC
  5
6D
100
AcDbEntity
  8
help2
 62
256
370
-1
  6
ByLayer
100
AcDbCircle
 10
234.5
 20
54.3710194550111581
 30
0.0
 40
3.0
100
AcDbArc
 50
0.0
 51
24.9722013190312992
  0
ARC
  5
6E
100
AcDbEntity
  8
help2
 62
256
370
-1
  6
ByLayer
100
AcDbCircle
 10
70.5
 20
52.0353399475094491
 30
0.0
 40
3.0
100
AcDbArc
 50
90.0
 51
180.0
  0
LINE
  5
6F
100
AcDbEntity
100
AcDbLine
  8
help2
 62
256
370
-1
  6
ByLayer
 10
67.5
 20
35.0353399475093994
 30
0.0
 11
67.5
 21
52.0353399475094633
 31
0.0
  0
LINE
  5
70
100
AcDbEntity
100
AcDbLine
  8
help2
 62
256
370
-1
  6
ByLayer
 10
30.5
 20
33.5353399475093923
 30
0.0
 11
30.5
 21
22.0353399475093781
 31
0.0
  0
LINE
  5
71
100
AcDbEntity
100
AcDbLine
  8
help2
 62
256
370
-1
  6
ByLayer
 10
70.5
 20
55.0353399475094207
 30
0.0
 11
199.5
 21
55.0353399475092857
 31
0.0
  0
LINE
  5
72
100
AcDbEntity
100
AcDbLine
  8
help2
 62
256
370
-1
  6
ByLayer
 10
202.5
 20
52.0353399475093141
 30
0.0
 11
202.5
 21
5.0353399475093639
 31
0.0
  0
ARC
  5
73
100
AcDbEntity
  8
help2
 62
256
370
-1
  6
ByLayer
100
AcDbCircle
 10
199.5
 20
52.0353399475091507
 30
0.0
 40
3.0
100
AcDbArc
 50
0.0
 51
90.0
  0
ENDSEC
  0
SECTION
  2
OBJECTS
  0
DICTIONARY
  5
C
100
AcDbDictionary
280
0
281
1
  3
ACAD_GROUP
350
D
  3
ACAD_LAYOUT
350
1A
  3
ACAD_MLINESTYLE
350
17
  3
ACAD_PLOTSETTINGS
350
19
  3
ACAD_PLOTSTYLENAME
350
E
  3
AcDbVariableDictionary
350
74
  0
DICTIONARY
  5
D
100
AcDbDictionary
280
0
281
1
  0
ACDBDICTIONARYWDFLT
  5
E
100
AcDbDictionary
281
1
  3
Normal
350
F
100
AcDbDictionaryWithDefault
340
F
  0
ACDBPLACEHOLDER
  5
F
  0
DICTIONARY
  5
17
100
AcDbDictionary
280
0
281
1
  3
Standard
350
18
  0
MLINESTYLE
  5
18
100
AcDbMlineStyle
  2
STANDARD
 70
0
  3

 62
256
 51
90.0
 52
90.0
 71
2
 49
0.5
 62
256
  6
BYLAYER
 49
-0.5
 62
256
  6
BYLAYER
  0
DICTIONARY
  5
19
100
AcDbDictionary
280
0
281
1
  0
DICTIONARY
  5
1A
100
AcDbDictionary
281
1
  3
Layout1
350
1E
  3
Layout2
350
26
  3
Model
350
22
  0
LAYOUT
  5
1E
100
AcDbPlotSettings
  1

  2
C:\Program Files\AutoCAD 2002\plotters\DWF ePlot (optimized for plotting).pc3
  4

  6

 40
0.0
 41
0.0
 42
0.0
 43
0.0
 44
0.0
 45
0.0
 46
0.0
 47
0.0
 48
0.0
 49
0.0
140
0.0
141
0.0
142
1.0
143
1.0
 70
688
 72
0
 73
0
 74
5
  7

 75
16
147
1.0
148
0.0
149
0.0
100
AcDbLayout
  1
Layout1
 70
1
 71
1
 10
0.0
 20
0.0
 11
420.0
 21
297.0
 12
0.0
 22
0.0
 32
0.0
 14
100000000000000000000.0
 24
100000000000000000000.0
 34
100000000000000000000.0
 15
-100000000000000000000.0
 25
-100000000000000000000.0
 35
-100000000000000000000.0
146
0.0
 13
0.0
 23
0.0
 33
0.0
 16
1.0
 26
0.0
 36
0.0
 17
0.0
 27
1.0
 37
0.0
 76
0
330
1B
  0
LAYOUT
  5
22
100
AcDbPlotSettings
  1

  2
C:\Program Files\AutoCAD 2002\plotters\DWF ePlot (optimized for plotting).pc3
  4

  6

 40
0.0
 41
0.0
 42
0.0
 43
0.0
 44
0.0
 45
0.0
 46
0.0
 47
0.0
 48
0.0
 49
0.0
140
0.0
141
0.0
142
1.0
143
1.0
 70
1712
 72
0
 73
0
 74
0
  7

 75
0
147
1.0
148
0.0
149
0.0
100
AcDbLayout
  1
Model
 70
1
 71
0
 10
0.0
 20
0.0
 11
12.0
 21
9.0
 12
0.0
 22
0.0
 32
0.0
 14
0.0
 24
0.0
 34
0.0
 15
0.0
 25
0.0
 35
0.0
146
0.0
 13
0.0
 23
0.0
 33
0.0
 16
1.0
 26
0.0
 36
0.0
 17
0.0
 27
1.0
 37
0.0
 76
0
330
1F
  0
LAYOUT
  5
26
100
AcDbPlotSettings
  1

  2
C:\Program Files\AutoCAD 2002\plotters\DWF ePlot (optimized for plotting).pc3
  4

  6

 40
0.0
 41
0.0
 42
0.0
 43
0.0
 44
0.0
 45
0.0
 46
0.0
 47
0.0
 48
0.0
 49
0.0
140
0.0
141
0.0
142
1.0
143
1.0
 70
688
 72
0
 73
0
 74
5
  7

 75
16
147
1.0
148
0.0
149
0.0
100
AcDbLayout
  1
Layout2
 70
1
 71
2
 10
0.0
 20
0.0
 11
12.0
 21
9.0
 12
0.0
 22
0.0
 32
0.0
 14
0.0
 24
0.0
 34
0.0
 15
0.0
 25
0.0
 35
0.0
146
0.0
 13
0.0
 23
0.0
 33
0.0
 16
1.0
 26
0.0
 36
0.0
 17
0.0
 27
1.0
 37
0.0
 76
0
330
23
  0
DICTIONARY
  5
74
100
AcDbDictionary
281
1
  3
DIMASSOC
350
76
  3
HIDETEXT
350
75
  0
DICTIONARYVAR
  5
75
100
DictionaryVariables
280
0
  1
2
  0
DICTIONARYVAR
  5
76
100
DictionaryVariables
280
0
  1
1
  0
ENDSEC
  0
EOF
